<svg width="15" height="15" viewBox="0 0 15 15" fill="none" xmlns="http://www.w3.org/2000/svg">
<path d="M0.727096 1.33415L2.3849 3.04424L2.71575 3.38552C1.51602 4.35307 0.567144 5.6394 0 7.12821C1.25791 10.4209 4.36265 12.7535 7.99819 12.7535C9.12522 12.7535 10.2013 12.5285 11.1866 12.1197L11.4956 12.4385L13.6151 14.6286L14.5422 13.6761L1.65416 0.377846L0.727096 1.33415ZM4.74802 5.47813L5.8714 6.63694C5.83868 6.79821 5.81687 6.95945 5.81687 7.12821C5.81687 8.36954 6.79482 9.37833 7.99819 9.37833C8.16179 9.37833 8.31813 9.35583 8.47083 9.32207L9.59421 10.4809C9.11067 10.7284 8.57263 10.8784 7.99819 10.8784C5.99138 10.8784 4.36265 9.19832 4.36265 7.12821C4.36265 6.53569 4.50808 5.98065 4.74802 5.47813Z" fill="#666666"/>
</svg>
