<svg width="11" height="15" viewBox="0 0 11 15" fill="none" xmlns="http://www.w3.org/2000/svg">
<path d="M9.15625 5.72222H8.24125V3.5685C8.24125 2.04096 7.0111 0.798233 5.49906 0.798233C3.98702 0.798233 2.75687 2.04096 2.75687 3.5685V5.72222H1.84375C1.00373 5.72222 0.320312 6.42719 0.320312 7.29371V12.6368C0.320312 13.5033 1.00373 14.2083 1.84375 14.2083H9.15625C9.99627 14.2083 10.6797 13.5033 10.6797 12.6368V7.29371C10.6797 6.42719 9.99627 5.72222 9.15625 5.72222ZM3.7725 3.5685C3.7725 2.61864 4.54704 1.84589 5.49906 1.84589C6.45108 1.84589 7.22562 2.61864 7.22562 3.5685V5.72222H3.7725V3.5685ZM9.66406 12.6368C9.66406 12.9256 9.43626 13.1606 9.15625 13.1606H1.84375C1.56374 13.1606 1.33594 12.9256 1.33594 12.6368V7.29371C1.33594 7.00487 1.56374 6.76988 1.84375 6.76988H9.15625C9.43626 6.76988 9.66406 7.00487 9.66406 7.29371V12.6368Z" fill="white"/>
</svg>
